<svg xmlns="http://www.w3.org/2000/svg" viewBox="0 0 692.85 136.74"><defs><style>.cls-1,.cls-2{fill:#f7f7f7;}.cls-1{stroke:#f7fcfc;stroke-miterlimit:10;stroke-width:5px;}</style></defs><g id="Layer_2" data-name="Layer 2"><g id="Layer_2-2" data-name="Layer 2"><line class="cls-1" x1="12.12" y1="101.9" x2="676.12" y2="101.9"/><path class="cls-2" d="M359.81,46.91l-2.93.93s-3.74,6-8.77,6.9-6.14-3.56-4.27-6.61,7.25-9.71,7.25-9.71,1.87-1.55,7-1.9,8.68-.7,11.71,0,7.2,2.85,11.5,1.09,13.95-9.12,8.68-24c0,0,15.39,10.06,9.66,34.57,0,0-2.81,11.23-12.23,15.33Z"/><path class="cls-2" d="M365.89,83.76c-13.13,0-27.34-10.86-28.32-11.62-12.55-8.68-19.18-21-19.18-35.53a33.81,33.81,0,0,1,10.12-23.68l.76-.77-.47,1.28L328.34,16c-.1.08-7.14,7.55-7.14,20.65,0,13.61,6.22,25.11,18,33.24l.06.05c.14.11,14.29,11,26.63,11,0,0,1.69-.11,3-2.44l2.45,1.37C369.2,83.72,366,83.76,365.89,83.76Z"/><path class="cls-2" d="M371.69,80.44a4.6,4.6,0,0,1-1.44-.17c-3.82-1.23-9.58-7.51-9.83-7.68l.05,0s6.23,4,10.42,5c3.11.72,4.12-3.35,4.17-3.53l2.73.66C377.27,76.82,375.37,80.44,371.69,80.44Z"/><path class="cls-2" d="M378.23,75.75h-.08c-3.85-.07-11.45-6.06-13.95-9.22l-.05,0c3.82,2.64,11.72,6.41,14.05,6.45a1.39,1.39,0,0,0,1.06-.41c.93-.91,1.14-3,1.14-3.69h2.81c0,.39-.06,3.8-2,5.69A4.15,4.15,0,0,1,378.23,75.75Z"/><path class="cls-2" d="M384.26,71.18c-2.65,0-13-7.59-15.9-10.57l.05,0c6.19,4.12,14.42,7.63,15.86,7.73.34,0,.92-.5,1.34-1.45.57-1.29.57-2.78,0-3.4-1.31-1.41-17.46-11-27.33-16.7-2.34-1.27-9.17-4.66-12.37-4.84s-11.73-4.25-16-11.36c-3.42-5.62-3.63-11.67-.61-18.36L329,14.79a23.75,23.75,0,0,0,3.24,14.39c4.06,6.68,11.87,9.9,13.8,10,4.48.25,13.21,5,13.58,5.2,4.37,2.52,26.11,15.15,28,17.25,1.55,1.69,1.36,4.44.49,6.42S385.85,71.18,384.26,71.18Z"/><path class="cls-2" d="M340.85,62.06,337,69.34l6.15-9a5.13,5.13,0,0,1,4.65.09,4.29,4.29,0,0,1,2,4.12l-6.05,8.43,6.93-7.72a6.32,6.32,0,0,1,3.07,1.4c1.76,1.32,1.14,4.39,1.14,4.39L349,79,356,71.8a4.38,4.38,0,0,1,3.16,3c.79,2.55-2.11,6.23-4.57,9.13,0,0-1.31,1.14-4,.26a3.4,3.4,0,0,1-2.58-3.28,6.37,6.37,0,0,1-4.39-.64,4.35,4.35,0,0,1-2.28-3.45,4.67,4.67,0,0,1-4.09-.82,6.53,6.53,0,0,1-1.81-4.33A6.12,6.12,0,0,1,331.44,69c-1.64-2.4.52-5.5,1.52-6.79S337.7,58,340.85,62.06Z"/><path class="cls-2" d="M359,0l.9,0L361,0l.7,0,.81.06.9.06c.32,0,.66,0,1,.09l2.28.29c.81.15,1.7.28,2.63.48l1.43.32.75.17.76.21,1.59.44,1.64.54c.57.17,1.13.4,1.71.62s1.17.43,1.75.71a48.44,48.44,0,0,1,7.39,3.88,52.66,52.66,0,0,1,7.54,5.82,51.9,51.9,0,0,1,7,8,52.81,52.81,0,0,1,5.56,10.16c.21.46.37.94.55,1.41s.36,1,.53,1.43.31,1,.46,1.48l.24.74c.07.25.13.5.2.75.13.5.27,1,.4,1.52s.22,1,.34,1.54c.05.26.11.52.16.78l.08.4.07.39c.08.53.16,1.06.25,1.59s.14,1.07.2,1.61.12,1.08.17,1.62l.09,1.65,0,.82s0,.12,0,.14v.71c0,.54,0,1.08,0,1.62s0,1.12-.06,1.69c0,1.15-.17,2.27-.27,3.4A50.91,50.91,0,0,1,408.62,64c-.26,1.14-.63,2.25-1,3.38-.19.56-.4,1.11-.6,1.67l-.31.84-.34.83a52.58,52.58,0,0,1-3.21,6.47c-.32.52-.64,1-.95,1.56l-1,1.52c-.17.25-.34.51-.52.76l-.55.74-.56.74c-.18.25-.37.49-.57.73l-1.18,1.43c-.41.47-.84.92-1.26,1.38l-.63.69-.67.66-.66.66c-.23.22-.45.44-.68.64a50.92,50.92,0,0,1-5.9,4.73l-1.59,1c-.53.35-1.09.66-1.64,1l-.82.48-.85.45-.84.45c-.28.15-.57.3-.86.43l-1.74.81c-.59.26-1.19.48-1.78.73l-.9.35-.91.32-.91.32c-.3.11-.61.21-.92.3a51.85,51.85,0,0,1-7.54,1.73,58.63,58.63,0,0,1-7.73.59l-1.9,0h-.46l-.47,0-1-.07-1-.08-.5,0-.48-.06-1.92-.25a50.87,50.87,0,0,1-7.54-1.73c-.31-.08-.62-.19-.92-.29l-.91-.32-.91-.32-.9-.35c-.59-.25-1.19-.48-1.78-.74l-1.74-.8c-.3-.13-.58-.28-.86-.43l-.85-.45L334,96l-.82-.48c-.55-.33-1.1-.64-1.64-1l-1.59-1a53,53,0,0,1-5.9-4.72l-.68-.65-.66-.66-.67-.66-.63-.69c-.42-.46-.85-.91-1.26-1.38L319,83.24c-.2-.24-.39-.48-.57-.73l-.56-.74-.55-.74c-.19-.24-.35-.51-.52-.76l-1-1.52-.95-1.56a49.38,49.38,0,0,1-3.21-6.48l-.35-.82-.31-.84c-.2-.56-.41-1.11-.6-1.67-.33-1.14-.71-2.25-1-3.39a50.73,50.73,0,0,1-1.26-6.8c-.11-1.14-.24-2.26-.27-3.39,0-.56-.06-1.12-.07-1.68s0-1.11,0-1.67v-.86l0-.81.09-1.59c.05-.55.11-1.1.17-1.65s.1-1.09.2-1.62.17-1.06.25-1.59l.06-.4.09-.39c.05-.26.11-.52.16-.78.12-.52.21-1,.34-1.54s.27-1,.4-1.52c.07-.26.13-.51.2-.76l.24-.74c.15-.49.31-1,.46-1.47s.36-1,.53-1.43.34-1,.55-1.42a52.51,52.51,0,0,1,5.57-10.15,51.52,51.52,0,0,1,7-8,52.33,52.33,0,0,1,7.53-5.81,48.1,48.1,0,0,1,7.4-3.88c.58-.28,1.18-.49,1.75-.71s1.14-.45,1.71-.62l1.64-.54,1.59-.44.76-.21.75-.17,1.43-.32c.93-.2,1.82-.33,2.63-.48l2.28-.29c.35-.05.69-.06,1-.09l.9-.06.81-.06.7,0,1.1,0Zm0,0-.89,0-1.1,0c-.22,0-.45,0-.7,0l-.81.07a46.39,46.39,0,0,0-9.74,1.7l-1.57.47-1.63.57c-.56.18-1.11.41-1.68.64s-1.16.46-1.74.74a45.75,45.75,0,0,0-7.23,4.05,48.27,48.27,0,0,0-13.69,14.13,48.94,48.94,0,0,0-4.85,10.11c-.17.45-.29.92-.44,1.38s-.29.94-.42,1.41l-.36,1.43-.18.72c-.05.25-.09.49-.14.74-.1.48-.19,1-.29,1.47s-.15,1-.23,1.49c0,.25-.07.49-.11.75l-.05.37,0,.38c-.05.5-.09,1-.14,1.52s-.07,1-.1,1.52,0,1-.06,1.52,0,1.06,0,1.6v.8l0,.75L311,52c0,.53.11,1.05.16,1.57.09,1.05.29,2.09.45,3.14a47.3,47.3,0,0,0,1.56,6.23c.31,1,.72,2,1.1,3.06.2.5.42,1,.64,1.5l.32.75.36.74a48.4,48.4,0,0,0,29.9,25.47l1.66.45c.27.08.55.13.83.2l.84.19.83.19.85.14c.56.09,1.12.21,1.69.29l1.71.21.42.05.42,0,.83.06.83.06.43,0h.46l1.75,0a50.69,50.69,0,0,0,6.86-.48c.57-.07,1.13-.19,1.69-.29l.85-.14.83-.19c.56-.13,1.12-.24,1.68-.38l1.65-.45A48.76,48.76,0,0,0,385,88.78c.24-.14.47-.3.7-.46l.7-.49.7-.48.68-.51c.45-.34.91-.67,1.35-1l1.3-1.08A51,51,0,0,0,395.17,80a48.26,48.26,0,0,0,7.31-11l.36-.74.32-.75c.21-.51.44-1,.64-1.51.37-1,.79-2,1.1-3.06a48.51,48.51,0,0,0,1.56-6.23c.16-1,.36-2.1.45-3.12,0-.52.12-1,.16-1.55l.09-1.62,0-.76V47.29c0-.51,0-1-.06-1.54s0-1-.09-1.53l-.15-1.52,0-.38-.06-.38c0-.25-.07-.5-.11-.75-.07-.49-.13-1-.22-1.49s-.2-1-.29-1.47l-.15-.73-.18-.72-.36-1.43c-.13-.48-.28-.94-.42-1.41s-.27-.94-.44-1.39a49.19,49.19,0,0,0-4.85-10.11A48.72,48.72,0,0,0,386.11,8.32a46.27,46.27,0,0,0-7.24-4.05c-.58-.28-1.17-.5-1.73-.74s-1.13-.46-1.69-.65l-1.63-.56-1.57-.47a46.39,46.39,0,0,0-9.74-1.7L361.7.08c-.25,0-.48,0-.7,0l-1.1,0Z"/><path class="cls-2" d="M72.29,89.86H57.86V38.2a6.81,6.81,0,0,0-.58-2.82,7.66,7.66,0,0,0-1.56-2.3,7.23,7.23,0,0,0-2.3-1.53A7,7,0,0,0,50.6,31a7,7,0,0,0-2.83.56,7.19,7.19,0,0,0-2.29,1.53,7.21,7.21,0,0,0-2.1,5.12V89.86H28.91V38.2a7.13,7.13,0,0,0-4.39-6.65A7,7,0,0,0,21.69,31a7,7,0,0,0-2.82.56A7.07,7.07,0,0,0,15,35.38a7.13,7.13,0,0,0-.55,2.82V89.86H0V38.2a21.25,21.25,0,0,1,1.69-8.45A21.58,21.58,0,0,1,13.24,18.2,21.83,21.83,0,0,1,29.46,18a21.26,21.26,0,0,1,6.71,4.16A21.59,21.59,0,0,1,59.05,18.2,21.58,21.58,0,0,1,70.6,29.75a21.25,21.25,0,0,1,1.69,8.45Z"/><path class="cls-2" d="M142.26,89.86H127.78V75.38h-29V89.86H84.4V46.48A28.1,28.1,0,0,1,86.67,35.2,29.31,29.31,0,0,1,92.85,26,28.64,28.64,0,0,1,102,19.79a29.14,29.14,0,0,1,22.55,0A29.14,29.14,0,0,1,140,35.2a28.28,28.28,0,0,1,2.27,11.28ZM127.78,61V46.48a14.1,14.1,0,0,0-1.14-5.63,14.51,14.51,0,0,0-7.71-7.72,14.57,14.57,0,0,0-11.25,0,14.47,14.47,0,0,0-4.62,3.11,14.67,14.67,0,0,0-3.1,4.61,14.1,14.1,0,0,0-1.14,5.63V61Z"/><path class="cls-2" d="M212.58,82.44a36.53,36.53,0,0,1-11.3,6.66,37.12,37.12,0,0,1-31.81-2.8,37.6,37.6,0,0,1-17.25-22.39,37.46,37.46,0,0,1,0-19.86A37.56,37.56,0,0,1,156,35.1a38.12,38.12,0,0,1,13.47-13.47,37.59,37.59,0,0,1,8.93-3.78,36.6,36.6,0,0,1,9.92-1.34,37.34,37.34,0,0,1,13,2.3,36,36,0,0,1,11.3,6.68L204.91,38.1a21.8,21.8,0,0,0-7.51-5.27A23,23,0,0,0,188.32,31a22.15,22.15,0,0,0-9,1.82A23.72,23.72,0,0,0,172,37.72,23.11,23.11,0,0,0,167.08,45a22.38,22.38,0,0,0-1.82,9,22.09,22.09,0,0,0,1.82,8.91,23.25,23.25,0,0,0,12.26,12.23,22.32,22.32,0,0,0,9,1.82,23,23,0,0,0,9.08-1.85,21.53,21.53,0,0,0,7.51-5.27Z"/><path class="cls-2" d="M235.43,89.86H221V17.52h14.48v29h28.91v-29h14.48V89.86H264.34V61H235.43Z"/><path class="cls-2" d="M472.5,89.86H457L429.12,42.24V89.86H414.64V17.52h15.48L458,65.19V17.52H472.5Z"/><path class="cls-2" d="M536.57,89.86H485.92V17.52H500.4V75.38h36.17Z"/><path class="cls-2" d="M558.56,89.86H544.08V17.52h14.48Z"/><path class="cls-2" d="M629.84,89.86H614.35L586.46,42.24V89.86H572V17.52h15.49l27.89,47.67V17.52h14.48Z"/><path class="cls-2" d="M692.85,89.86H643.26V17.52h49.59V32H657.74V46.48H681.5V61H657.74V75.38h35.11Z"/><path class="cls-2" d="M359.45.23,363,.39c.58,0,1.23,0,1.93.12l2.31.34c.82.14,1.73.22,2.67.42l3,.73a51.86,51.86,0,0,1,14.37,6.1,53.44,53.44,0,0,1,24.8,36.47c.23,1.1.28,2.23.43,3.36l.18,1.7.09.86v1a48.36,48.36,0,0,1-.17,6.83c-.13,1.21-.18,2.49-.4,3.68s-.47,2.38-.71,3.58a30.54,30.54,0,0,1-1,3.58L410,70.92l-.28.89-.37.87a55.07,55.07,0,0,1-7.5,13.41c-.83,1-1.68,2-2.54,3-.22.25-.42.51-.65.75l-.71.7L396.51,92l-1.44,1.39c-.49.46-1,.86-1.54,1.28-1,.84-2.09,1.7-3.19,2.48a56.25,56.25,0,0,1-14.6,7.25l-4,1.09-1,.26-1,.17-2.05.32-2,.32a20.38,20.38,0,0,1-2.07.16l-2.06.12-1,.06-.51,0-.26,0h-.13a2,2,0,0,1-.43,0l-3.7-.2-.93,0c-.3,0-.61,0-1-.1l-2.16-.32-2.15-.34-1.08-.17-1-.26c-1.34-.34-2.66-.72-4-1.08a56.63,56.63,0,0,1-14.61-7.25c-1.11-.78-2.14-1.65-3.2-2.47-.51-.43-1.05-.83-1.54-1.28L322.37,92,321,90.58l-.71-.7c-.22-.24-.43-.5-.65-.75l-2.54-3c-.81-1-1.5-2.15-2.24-3.21-.37-.54-.74-1.07-1.09-1.61l-.93-1.7c-.61-1.13-1.27-2.23-1.78-3.39s-1-2.34-1.48-3.51a51.53,51.53,0,0,1-3.25-14.3,52,52,0,0,1-.19-7V50.6s0-.36,0-.26l.1-.81.18-1.61.18-1.6a12.28,12.28,0,0,1,.23-1.63c.24-1.12.47-2.24.7-3.35.13-.54.22-1.1.38-1.63s.33-1,.49-1.55c.33-1,.66-2,1-3s.84-1.94,1.25-2.9a45.25,45.25,0,0,1,2.75-5.43,20.57,20.57,0,0,1,1.58-2.49l1.61-2.39a54.5,54.5,0,0,1,15.1-13.8A51.86,51.86,0,0,1,346,2l3-.73c.94-.2,1.85-.28,2.68-.42L354,.51c.7-.1,1.36-.08,1.93-.12Zm0,0-3.54.2c-.58,0-1.23,0-1.93.15l-2.3.36c-.83.15-1.72.24-2.66.46l-3,.8-1.59.45-1.63.62-1.71.66a14.62,14.62,0,0,0-1.75.75l-3.59,1.84c-1.2.73-2.4,1.54-3.65,2.34a47.65,47.65,0,0,0-13.48,14.46,49,49,0,0,0-4.51,10.23c-.26.93-.56,1.85-.81,2.79l-.54,2.89c-.1.49-.19,1-.28,1.46s-.09,1-.15,1.45c-.08,1-.17,1.93-.25,2.91a11.17,11.17,0,0,0,0,1.55c0,.53,0,1.07,0,1.61s0,1.08,0,1.62v.82c0,.16,0-.12,0-.06v.1l0,.19.05.38a44.26,44.26,0,0,0,.92,6.13,46.08,46.08,0,0,0,4.24,11.82c.51.93,1,1.86,1.55,2.79s1.2,1.76,1.78,2.66l.9,1.32c.33.42.69.82,1,1.24.7.81,1.34,1.67,2.09,2.45a52.41,52.41,0,0,0,10,8.2l2.84,1.6.7.4.75.32,1.49.66,1.47.68c.5.22,1,.36,1.54.55,1,.33,2,.74,3.08,1s2.12.49,3.17.76l.79.2.75.1,1.51.22,1.5.24a5,5,0,0,0,.85.08l.92,0,3.7.17h.11l.41,0,.81,0,1.64-.08a14.86,14.86,0,0,0,1.63-.1l1.61-.24a53.39,53.39,0,0,0,6.38-1.29c1.05-.29,2.06-.7,3.09-1,.51-.18,1-.33,1.54-.54l1.47-.68,1.49-.66.75-.32c.24-.12.47-.27.71-.4l2.83-1.6a51.79,51.79,0,0,0,10-8.2c.75-.78,1.39-1.64,2.09-2.45.34-.41.7-.82,1-1.24l.9-1.33c.58-.89,1.26-1.73,1.78-2.66l1.56-2.78.39-.7.31-.72.64-1.46a24.49,24.49,0,0,0,1.19-2.92c.33-1,.66-2,1-3s.45-2,.7-2.95a42.88,42.88,0,0,0,.94-6.34l0-.4,0-.2v-.11c0-.06,0,.22,0,.06v-.77l0-1.53c0-1,.09-2,0-3s-.17-2-.26-3c-.05-.5-.06-1-.15-1.49s-.19-1-.28-1.45c-.18-1-.37-1.94-.55-2.9s-.54-1.86-.81-2.79a48.49,48.49,0,0,0-4.52-10.23A47.73,47.73,0,0,0,386.77,8.86,46.11,46.11,0,0,0,372.84,2.2l-3-.81c-.93-.21-1.83-.3-2.66-.45L364.93.58c-.71-.11-1.36-.1-1.93-.15Z"/><path class="cls-2" d="M38.34,124.18a8,8,0,0,1-.3,2.2,8.28,8.28,0,0,1-.83,2,8.18,8.18,0,0,1-1.3,1.69,8.4,8.4,0,0,1-1.68,1.3,7.57,7.57,0,0,1-2,.84,8.25,8.25,0,0,1-4.41,0,7.87,7.87,0,0,1-2-.84,8.18,8.18,0,0,1-1.69-1.3,8.54,8.54,0,0,1-1.3-1.69,8.31,8.31,0,0,1-.84-2,8.22,8.22,0,0,1,0-4.4,8.31,8.31,0,0,1,.84-2,8.32,8.32,0,0,1,3-3,8.67,8.67,0,0,1,2-.84,8.53,8.53,0,0,1,4.41,0,8.31,8.31,0,0,1,2,.84,8.4,8.4,0,0,1,1.68,1.3,7.87,7.87,0,0,1,1.3,1.68,8.28,8.28,0,0,1,.83,2A8.06,8.06,0,0,1,38.34,124.18Zm-3.19,0a4.91,4.91,0,0,0-.41-2,5,5,0,0,0-1.09-1.63A5.19,5.19,0,0,0,32,119.48a5.15,5.15,0,0,0-4,0,5.36,5.36,0,0,0-1.63,1.09,5.12,5.12,0,0,0-1.09,1.63,5,5,0,0,0,0,4,5.31,5.31,0,0,0,1.09,1.62,5.18,5.18,0,0,0,1.63,1.09,5,5,0,0,0,4,0,5,5,0,0,0,1.62-1.09,5.14,5.14,0,0,0,1.09-1.62A4.87,4.87,0,0,0,35.15,124.18Z"/><path class="cls-2" d="M43.18,132.14H40.12v-12h.74l1,1.17a5.27,5.27,0,0,1,1.67-1,5.35,5.35,0,0,1,2-.36,5.14,5.14,0,0,1,2.07.42,5.42,5.42,0,0,1,1.71,1.15,5.57,5.57,0,0,1,1.14,1.71,5.27,5.27,0,0,1,.42,2.09v6.85h-3v-6.85a2.25,2.25,0,0,0-.18-.89,2.46,2.46,0,0,0-.49-.73,2.43,2.43,0,0,0-.73-.5,2.39,2.39,0,0,0-.89-.17,2.44,2.44,0,0,0-.9.17,2.25,2.25,0,0,0-.74.5,2.31,2.31,0,0,0-.5.73,2.24,2.24,0,0,0-.17.89Z"/><path class="cls-2" d="M56.09,132.14H53V115.38h3.08Z"/><path class="cls-2" d="M62,116.89a1.94,1.94,0,0,1-.16.8,2.21,2.21,0,0,1-.44.64,2.12,2.12,0,0,1-.66.44,2,2,0,0,1-2.25-.44,2.21,2.21,0,0,1-.44-.64,1.94,1.94,0,0,1-.16-.8,2,2,0,0,1,.16-.79,2.08,2.08,0,0,1,.44-.64,2.06,2.06,0,0,1,2.25-.44,2.12,2.12,0,0,1,.66.44,2.08,2.08,0,0,1,.44.64A2,2,0,0,1,62,116.89Zm-.53,15.25H58.41v-12h3.08Z"/><path class="cls-2" d="M66.88,132.14H63.82v-12h.74l1,1.17a5.27,5.27,0,0,1,1.67-1,5.45,5.45,0,0,1,2-.36,5.18,5.18,0,0,1,2.07.42,5.39,5.39,0,0,1,2.85,2.86,5.27,5.27,0,0,1,.42,2.09v6.85H71.48v-6.85a2.25,2.25,0,0,0-.18-.89,2.29,2.29,0,0,0-.49-.73,2.31,2.31,0,0,0-.73-.5,2.34,2.34,0,0,0-.88-.17,2.49,2.49,0,0,0-.91.17,2.36,2.36,0,0,0-.74.5,2.29,2.29,0,0,0-.49.73,2.25,2.25,0,0,0-.18.89Z"/><path class="cls-2" d="M81.48,129.21a1.53,1.53,0,0,0,.36.07l.36,0a3.13,3.13,0,0,0,.86-.12,3.43,3.43,0,0,0,.78-.36,2.65,2.65,0,0,0,.65-.56,2.91,2.91,0,0,0,.46-.73l2.24,2.25a6,6,0,0,1-2.18,1.9,5.52,5.52,0,0,1-1.35.51,6,6,0,0,1-1.46.18,6.09,6.09,0,0,1-2.38-.47,5.83,5.83,0,0,1-1.95-1.31,6.12,6.12,0,0,1-1.32-2,6.58,6.58,0,0,1-.48-2.55,6.84,6.84,0,0,1,.48-2.6,5.91,5.91,0,0,1,3.27-3.29,6.27,6.27,0,0,1,2.38-.46,6,6,0,0,1,2.82.7,6.45,6.45,0,0,1,1.21.82,6,6,0,0,1,1,1.09Zm1.57-6.3a1.29,1.29,0,0,0-.42-.1,3,3,0,0,0-.43,0A3.06,3.06,0,0,0,81,123a2.83,2.83,0,0,0-1,.66,3,3,0,0,0-.64,1,3.61,3.61,0,0,0-.24,1.35c0,.11,0,.24,0,.38a3.18,3.18,0,0,0,.06.43,2.59,2.59,0,0,0,.09.42,1.5,1.5,0,0,0,.15.36Z"/><path class="cls-2" d="M108.35,124.12a7.93,7.93,0,0,1-.28,2.13,7.55,7.55,0,0,1-.82,1.91,8.06,8.06,0,0,1-2.87,2.89,8.14,8.14,0,0,1-1.92.81,8,8,0,0,1-2.14.28H95.49v-16h4.83a8,8,0,0,1,2.14.28,8.58,8.58,0,0,1,1.92.81,8.68,8.68,0,0,1,1.62,1.26,8.21,8.21,0,0,1,1.25,1.63,7.55,7.55,0,0,1,.82,1.91A8,8,0,0,1,108.35,124.12Zm-3.21,0a4.66,4.66,0,0,0-.38-1.87,4.74,4.74,0,0,0-1-1.53,4.82,4.82,0,0,0-1.53-1,4.75,4.75,0,0,0-1.88-.38h-1.6v9.63h1.6a4.74,4.74,0,0,0,1.88-.37,4.84,4.84,0,0,0,2.94-4.44Z"/><path class="cls-2" d="M113.76,116.89a1.94,1.94,0,0,1-.16.8,2.21,2.21,0,0,1-.44.64,2.12,2.12,0,0,1-.66.44,2,2,0,0,1-2.25-.44,2.21,2.21,0,0,1-.44-.64,2.11,2.11,0,0,1-.16-.8,2.14,2.14,0,0,1,.16-.79,2.08,2.08,0,0,1,.44-.64,2.06,2.06,0,0,1,2.25-.44,2.12,2.12,0,0,1,.66.44,2.08,2.08,0,0,1,.44.64A2,2,0,0,1,113.76,116.89Zm-.53,15.25h-3.08v-12h3.08Z"/><path class="cls-2" d="M120.33,129.21a1.53,1.53,0,0,0,.36.07l.36,0a3,3,0,0,0,.86-.12,3.08,3.08,0,0,0,.78-.36,2.65,2.65,0,0,0,.65-.56,2.91,2.91,0,0,0,.46-.73l2.24,2.25a6,6,0,0,1-1,1.09,6.25,6.25,0,0,1-1.19.81,5.59,5.59,0,0,1-1.36.51,5.9,5.9,0,0,1-1.46.18,6.12,6.12,0,0,1-2.38-.47,6,6,0,0,1-2-1.31,6.25,6.25,0,0,1-1.31-2,6.41,6.41,0,0,1-.49-2.55,6.65,6.65,0,0,1,.49-2.6,6,6,0,0,1,1.31-2,6.14,6.14,0,0,1,2-1.29,6.31,6.31,0,0,1,2.38-.46,6.16,6.16,0,0,1,4,1.52,6.42,6.42,0,0,1,1,1.09Zm1.57-6.3a1.29,1.29,0,0,0-.42-.1,3,3,0,0,0-.43,0,3.1,3.1,0,0,0-1.18.23,2.79,2.79,0,0,0-1,.66,3,3,0,0,0-.65,1A3.61,3.61,0,0,0,118,126c0,.11,0,.24,0,.38a3.18,3.18,0,0,0,.06.43c0,.15.06.29.09.42a1.5,1.5,0,0,0,.15.36Z"/><path class="cls-2" d="M130.66,132.14H127.6v-12h.74l1,1.17a5.27,5.27,0,0,1,1.67-1,5.35,5.35,0,0,1,1.95-.36,5.19,5.19,0,0,1,2.08.42,5.49,5.49,0,0,1,1.7,1.15,5.39,5.39,0,0,1,1.14,1.71,5.27,5.27,0,0,1,.42,2.09v6.85h-3.05v-6.85a2.25,2.25,0,0,0-.18-.89,2.29,2.29,0,0,0-.49-.73,2.43,2.43,0,0,0-.73-.5A2.39,2.39,0,0,0,133,123a2.44,2.44,0,0,0-.9.17,2.25,2.25,0,0,0-.74.5,2.13,2.13,0,0,0-.49.73,2.25,2.25,0,0,0-.18.89Z"/><path class="cls-2" d="M147.07,132.14h-7v-3h7a.74.74,0,0,0,.54-.23.69.69,0,0,0,.22-.53.42.42,0,0,0-.22-.43,1.27,1.27,0,0,0-.54-.1h-3.18a3.71,3.71,0,0,1-1.49-.3,3.78,3.78,0,0,1-2-2,3.85,3.85,0,0,1,0-3,3.75,3.75,0,0,1,2-2,3.71,3.71,0,0,1,1.49-.3h6.19v3h-6.19a.75.75,0,0,0-.76.76.78.78,0,0,0,.22.56.73.73,0,0,0,.54.22h3.18a4.05,4.05,0,0,1,1.48.27,3.8,3.8,0,0,1,1.21.73,3.73,3.73,0,0,1,.82,1.13,3.48,3.48,0,0,1,.3,1.45,3.66,3.66,0,0,1-.3,1.48,4.24,4.24,0,0,1-.82,1.21,3.87,3.87,0,0,1-1.21.82A3.69,3.69,0,0,1,147.07,132.14Z"/><path class="cls-2" d="M158.51,132.14a5.19,5.19,0,0,1-2.08-.42,5.36,5.36,0,0,1-2.86-2.86,5.19,5.19,0,0,1-.42-2.08v-3.56h-1.49v-3h1.49v-4.79h3v4.79h4.63v3H156.2v3.56a2.26,2.26,0,0,0,.18.9,2.17,2.17,0,0,0,.49.74,2.39,2.39,0,0,0,.74.49,2.11,2.11,0,0,0,.9.19h2.32v3Z"/><path class="cls-2" d="M165.62,132.14h-3.08V115.38h3.08Z"/><path class="cls-2" d="M172.72,129.21a1.53,1.53,0,0,0,.36.07l.36,0a3,3,0,0,0,.86-.12,3.08,3.08,0,0,0,.78-.36,2.65,2.65,0,0,0,.65-.56,2.91,2.91,0,0,0,.46-.73l2.24,2.25a6,6,0,0,1-1,1.09,6.25,6.25,0,0,1-1.19.81,5.59,5.59,0,0,1-1.36.51,5.9,5.9,0,0,1-1.46.18,6.12,6.12,0,0,1-2.38-.47,6,6,0,0,1-1.95-1.31,6.25,6.25,0,0,1-1.31-2,6.58,6.58,0,0,1-.49-2.55,6.84,6.84,0,0,1,.49-2.6,6,6,0,0,1,1.31-2,6.14,6.14,0,0,1,1.95-1.29,6.31,6.31,0,0,1,2.38-.46,6.16,6.16,0,0,1,4,1.52,6.42,6.42,0,0,1,1,1.09Zm1.57-6.3a1.29,1.29,0,0,0-.42-.1,3,3,0,0,0-.43,0,3.1,3.1,0,0,0-1.18.23,2.79,2.79,0,0,0-1,.66,3,3,0,0,0-.65,1,3.61,3.61,0,0,0-.23,1.35c0,.11,0,.24,0,.38a3.18,3.18,0,0,0,.06.43q0,.23.09.42a1.5,1.5,0,0,0,.15.36Z"/><path class="cls-2" d="M183.6,116.89a1.94,1.94,0,0,1-.17.8,2,2,0,0,1-.44.64,2.07,2.07,0,0,1-.65.44,2.11,2.11,0,0,1-1.61,0,2.07,2.07,0,0,1-.65-.44,2.18,2.18,0,0,1-.43-.64,1.94,1.94,0,0,1-.16-.8,2,2,0,0,1,.16-.79,2,2,0,0,1,1.08-1.08,2.11,2.11,0,0,1,1.61,0,2.07,2.07,0,0,1,.65.44,1.92,1.92,0,0,1,.44.64A2,2,0,0,1,183.6,116.89Zm-.53,15.25H180v-12h3.08Z"/><path class="cls-2" d="M192,132.14h-7v-3h7a.74.74,0,0,0,.54-.23.69.69,0,0,0,.22-.53.42.42,0,0,0-.22-.43,1.27,1.27,0,0,0-.54-.1H188.8a3.74,3.74,0,0,1-1.49-.3,3.78,3.78,0,0,1-2-2,3.85,3.85,0,0,1,0-3,3.75,3.75,0,0,1,2-2,3.74,3.74,0,0,1,1.49-.3H195v3H188.8a.75.75,0,0,0-.76.76.78.78,0,0,0,.22.56.73.73,0,0,0,.54.22H192a4.05,4.05,0,0,1,1.48.27,3.69,3.69,0,0,1,1.21.73,3.73,3.73,0,0,1,.82,1.13,3.48,3.48,0,0,1,.3,1.45,3.66,3.66,0,0,1-.3,1.48,4.24,4.24,0,0,1-.82,1.21,3.75,3.75,0,0,1-1.21.82A3.69,3.69,0,0,1,192,132.14Z"/><path class="cls-2" d="M203.42,132.14a5.22,5.22,0,0,1-2.08-.42,5.42,5.42,0,0,1-1.71-1.15,5.59,5.59,0,0,1-1.15-1.71,5.19,5.19,0,0,1-.42-2.08v-3.56h-1.49v-3h1.49v-4.79h3.05v4.79h4.63v3h-4.63v3.56a2.26,2.26,0,0,0,.18.9,2.33,2.33,0,0,0,.49.74,2.39,2.39,0,0,0,.74.49,2.11,2.11,0,0,0,.9.19h2.32v3Z"/><path class="cls-2" d="M216.27,130.75a9.92,9.92,0,0,1-.79.63,5.16,5.16,0,0,1-.88.51,5.42,5.42,0,0,1-.95.35,3.64,3.64,0,0,1-1,.13,5.54,5.54,0,0,1-2.08-.39,5.18,5.18,0,0,1-1.71-1.12,5.12,5.12,0,0,1-1.15-1.76,6.11,6.11,0,0,1-.42-2.32v-6.63h3v6.63a3.06,3.06,0,0,0,.19,1.08,2.23,2.23,0,0,0,.5.8,2.16,2.16,0,0,0,.73.5,2.44,2.44,0,0,0,.9.16,1.83,1.83,0,0,0,.89-.22,2.41,2.41,0,0,0,.74-.57,3,3,0,0,0,.49-.81,2.57,2.57,0,0,0,.18-.94v-6.63h3v12h-.74Z"/><path class="cls-2" d="M223.4,132.14h-3.06v-12h.74l1,1.17a5.27,5.27,0,0,1,1.67-1,5.45,5.45,0,0,1,2-.36,5.18,5.18,0,0,1,2.07.42,5.27,5.27,0,0,1,1.7,1.15,5.42,5.42,0,0,1,1.15,1.71,5.27,5.27,0,0,1,.42,2.09v6.85H228v-6.85a2.25,2.25,0,0,0-.18-.89,2.29,2.29,0,0,0-.49-.73,2.31,2.31,0,0,0-.73-.5,2.34,2.34,0,0,0-.88-.17,2.49,2.49,0,0,0-.91.17,2.36,2.36,0,0,0-.74.5,2.29,2.29,0,0,0-.49.73,2.25,2.25,0,0,0-.18.89Z"/><path class="cls-2" d="M244.84,130.63a5.92,5.92,0,0,1-.48,2.38,6.18,6.18,0,0,1-5.64,3.73l-1.54,0v-3.05l1.51,0a3.46,3.46,0,0,0,1.23-.19,2.65,2.65,0,0,0,.85-.5,2.6,2.6,0,0,0,.55-.73,4.43,4.43,0,0,0,.33-.88,1.31,1.31,0,0,1-.51.48,4.19,4.19,0,0,1-.75.3,4.73,4.73,0,0,1-.85.16c-.3,0-.57.05-.82.05a6.45,6.45,0,0,1-2.38-.44,5.73,5.73,0,0,1-3.27-3.23,7,7,0,0,1-.48-2.66,6.57,6.57,0,0,1,.48-2.52,6.27,6.27,0,0,1,1.32-2,6.17,6.17,0,0,1,2-1.34,5.92,5.92,0,0,1,2.38-.48,4.54,4.54,0,0,1,1.15.15,6.4,6.4,0,0,1,1.11.4,5.86,5.86,0,0,1,1,.61,8.36,8.36,0,0,1,.92.75l1.18-1.43h.74ZM241.76,126a3.15,3.15,0,0,0-.24-1.21,3.45,3.45,0,0,0-.65-1,3.14,3.14,0,0,0-1-.73,2.56,2.56,0,0,0-1.18-.28,3.1,3.1,0,0,0-1.18.22,2.83,2.83,0,0,0-1,.62,3.05,3.05,0,0,0-.64,1,3.79,3.79,0,0,0-.24,1.39,3.61,3.61,0,0,0,.24,1.35,3.26,3.26,0,0,0,.64,1,2.9,2.9,0,0,0,1,.65,3.1,3.1,0,0,0,1.18.23,2.68,2.68,0,0,0,1.18-.27,3.49,3.49,0,0,0,1-.73,3.58,3.58,0,0,0,.65-1A3.23,3.23,0,0,0,241.76,126Z"/><path class="cls-2" d="M251.94,129.21a1.53,1.53,0,0,0,.36.07l.36,0a3,3,0,0,0,1.64-.48,2.65,2.65,0,0,0,.65-.56,2.91,2.91,0,0,0,.46-.73l2.24,2.25a6,6,0,0,1-2.18,1.9,5.52,5.52,0,0,1-1.35.51,6,6,0,0,1-1.46.18,6,6,0,0,1-5.65-3.78,6.58,6.58,0,0,1-.48-2.55,6.84,6.84,0,0,1,.48-2.6,5.91,5.91,0,0,1,1.32-2,6.14,6.14,0,0,1,1.95-1.29,6.27,6.27,0,0,1,2.38-.46,5.9,5.9,0,0,1,1.46.18,5.71,5.71,0,0,1,1.36.52,6.45,6.45,0,0,1,1.21.82,6,6,0,0,1,1,1.09Zm1.57-6.3a1.29,1.29,0,0,0-.42-.1,3,3,0,0,0-.43,0,3.1,3.1,0,0,0-1.18.23,2.93,2.93,0,0,0-1,.66,3.11,3.11,0,0,0-.64,1,3.61,3.61,0,0,0-.24,1.35c0,.11,0,.24,0,.38a3.18,3.18,0,0,0,.06.43,2.59,2.59,0,0,0,.09.42,1.5,1.5,0,0,0,.15.36Z"/><path class="cls-2" d="M262.26,132.14h-3.05v-12H260l1,1.17a5.36,5.36,0,0,1,3.63-1.4,5.18,5.18,0,0,1,2.07.42,5.42,5.42,0,0,1,1.71,1.15,5.57,5.57,0,0,1,1.14,1.71,5.27,5.27,0,0,1,.42,2.09v6.85h-3.05v-6.85a2.25,2.25,0,0,0-.18-.89,2.31,2.31,0,0,0-.5-.73,2.27,2.27,0,0,0-.72-.5,2.39,2.39,0,0,0-.89-.17,2.53,2.53,0,0,0-.91.17,2.21,2.21,0,0,0-.73.5,2.31,2.31,0,0,0-.5.73,2.25,2.25,0,0,0-.18.89Z"/><path class="cls-2" d="M282.4,132.14h-3.06V123.2h-1.49v-3h1.49v-.57a5.19,5.19,0,0,1,.42-2.08,5.27,5.27,0,0,1,1.15-1.7,5.57,5.57,0,0,1,1.71-1.14,5.19,5.19,0,0,1,2.08-.42H287v3.05h-2.3a2.27,2.27,0,0,0-.91.17,2.44,2.44,0,0,0-.73.48,2.35,2.35,0,0,0-.66,1.64v.57h3.75v3H282.4Z"/><path class="cls-2" d="M296.4,130.75a8.39,8.39,0,0,1-.79.63,5.16,5.16,0,0,1-.88.51,5.32,5.32,0,0,1-.94.35,3.74,3.74,0,0,1-1,.13,5.5,5.5,0,0,1-2.08-.39,5.12,5.12,0,0,1-2.87-2.88,6.11,6.11,0,0,1-.42-2.32v-6.63h3.05v6.63a3.06,3.06,0,0,0,.18,1.08,2.37,2.37,0,0,0,.5.8,2.2,2.2,0,0,0,.74.5,2.44,2.44,0,0,0,.9.16,1.86,1.86,0,0,0,.89-.22,2.37,2.37,0,0,0,.73-.57,2.78,2.78,0,0,0,.49-.81,2.57,2.57,0,0,0,.18-.94v-6.63h3.06v12h-.74Zm-4.2-12.94a1.38,1.38,0,0,1-.11.57,1.29,1.29,0,0,1-.31.46,1.37,1.37,0,0,1-.45.3,1.26,1.26,0,0,1-.55.12,1.3,1.3,0,0,1-.55-.12,1.31,1.31,0,0,1-.46-.3,1.44,1.44,0,0,1-.31-.46,1.39,1.39,0,0,1-.12-.57,1.3,1.3,0,0,1,.12-.55,1.39,1.39,0,0,1,.31-.45,1.49,1.49,0,0,1,.46-.31,1.46,1.46,0,0,1,.55-.11,1.42,1.42,0,0,1,.55.11,1.57,1.57,0,0,1,.45.31,1.25,1.25,0,0,1,.31.45A1.29,1.29,0,0,1,292.2,117.81Zm4,0a1.41,1.41,0,0,1-.11.54,1.44,1.44,0,0,1-.29.46,1.32,1.32,0,0,1-.44.3,1.21,1.21,0,0,1-.53.12,1.34,1.34,0,0,1-.56-.12,1.37,1.37,0,0,1-.45-.3,1.31,1.31,0,0,1-.3-.46,1.38,1.38,0,0,1,0-1.08,1.38,1.38,0,0,1,.75-.75,1.34,1.34,0,0,1,.56-.12,1.21,1.21,0,0,1,.53.12,1.32,1.32,0,0,1,.44.3,1.51,1.51,0,0,1,.29.45A1.41,1.41,0,0,1,296.24,117.84Z"/><path class="cls-2" d="M303.54,132.14h-3.06v-12h.74l1,1.43a5.21,5.21,0,0,1,1.68-1,5.35,5.35,0,0,1,1.94-.37h2.7v3h-2.7a2.26,2.26,0,0,0-.9.18,2.22,2.22,0,0,0-.74.49,2.36,2.36,0,0,0-.5.74,2.53,2.53,0,0,0-.17.91Z"/><path class="cls-2" d="M329.38,125.73a6.18,6.18,0,0,1-.51,2.5,6.37,6.37,0,0,1-1.37,2,6.7,6.7,0,0,1-2.05,1.37,6.5,6.5,0,0,1-5,0,6.54,6.54,0,0,1-2-1.37,6.37,6.37,0,0,1-1.37-2,6.17,6.17,0,0,1-.5-2.5v-9.64h3.2v9.64A3.05,3.05,0,0,0,320,127a3.25,3.25,0,0,0,1.71,1.71,3.25,3.25,0,0,0,2.5,0,3.28,3.28,0,0,0,1-.69,3.12,3.12,0,0,0,.69-1,3.05,3.05,0,0,0,.25-1.24v-9.64h3.22Z"/><path class="cls-2" d="M334.67,132.14h-3.05v-12h.74l1,1.17a5.36,5.36,0,0,1,3.63-1.4,5.18,5.18,0,0,1,2.07.42,5.42,5.42,0,0,1,1.71,1.15,5.57,5.57,0,0,1,1.14,1.71,5.27,5.27,0,0,1,.42,2.09v6.85h-3.05v-6.85a2.25,2.25,0,0,0-.18-.89,2.31,2.31,0,0,0-.5-.73A2.15,2.15,0,0,0,337,123a2.53,2.53,0,0,0-.91.17,2.21,2.21,0,0,0-.73.5,2.31,2.31,0,0,0-.5.73,2.25,2.25,0,0,0-.18.89Z"/><path class="cls-2" d="M350.36,132.14a5.19,5.19,0,0,1-2.08-.42,5.36,5.36,0,0,1-2.86-2.86,5.19,5.19,0,0,1-.42-2.08v-3.56h-1.49v-3H345v-4.79h3v4.79h4.64v3H348v3.56a2.26,2.26,0,0,0,.18.9,2.23,2.23,0,0,0,1.23,1.23,2.18,2.18,0,0,0,.91.19h2.32v3Z"/><path class="cls-2" d="M359.16,129.21a1.53,1.53,0,0,0,.36.07l.36,0a3,3,0,0,0,1.64-.48,2.65,2.65,0,0,0,.65-.56,2.91,2.91,0,0,0,.46-.73l2.24,2.25a6,6,0,0,1-2.18,1.9,5.52,5.52,0,0,1-1.35.51,5.9,5.9,0,0,1-1.46.18,6.06,6.06,0,0,1-4.33-1.78,6.28,6.28,0,0,1-1.32-2,6.58,6.58,0,0,1-.48-2.55,6.84,6.84,0,0,1,.48-2.6,6.06,6.06,0,0,1,1.32-2,6.14,6.14,0,0,1,1.95-1.29,6.27,6.27,0,0,1,2.38-.46,5.9,5.9,0,0,1,1.46.18,6,6,0,0,1,1.37.52,6.38,6.38,0,0,1,1.2.82,6,6,0,0,1,1,1.09Zm1.57-6.3a1.29,1.29,0,0,0-.42-.1,3,3,0,0,0-.43,0,3.1,3.1,0,0,0-1.18.23,2.93,2.93,0,0,0-1,.66,3.11,3.11,0,0,0-.64,1,3.61,3.61,0,0,0-.23,1.35c0,.11,0,.24,0,.38a3.18,3.18,0,0,0,.06.43c0,.15.06.29.09.42a1.5,1.5,0,0,0,.15.36Z"/><path class="cls-2" d="M369.48,132.14h-3.05v-12h.74l1,1.43a5.43,5.43,0,0,1,3.63-1.41h2.7v3h-2.7a2.26,2.26,0,0,0-.9.18,2.22,2.22,0,0,0-.74.49,2.3,2.3,0,0,0-.68,1.65Z"/><path class="cls-2" d="M379,132.14h-3.06v-12h.74l1,1.17a5.27,5.27,0,0,1,1.67-1,5.45,5.45,0,0,1,2-.36,5.18,5.18,0,0,1,2.07.42,5.27,5.27,0,0,1,1.7,1.15,5.42,5.42,0,0,1,1.15,1.71,5.27,5.27,0,0,1,.42,2.09v6.85h-3.06v-6.85a2.25,2.25,0,0,0-.18-.89,2.29,2.29,0,0,0-.49-.73,2.31,2.31,0,0,0-.73-.5,2.34,2.34,0,0,0-.88-.17,2.49,2.49,0,0,0-.91.17,2.36,2.36,0,0,0-.74.5,2.29,2.29,0,0,0-.49.73,2.25,2.25,0,0,0-.18.89Z"/><path class="cls-2" d="M393.58,129.21a1.53,1.53,0,0,0,.36.07l.36,0a3,3,0,0,0,1.64-.48,2.65,2.65,0,0,0,.65-.56,2.91,2.91,0,0,0,.46-.73l2.24,2.25a6,6,0,0,1-2.18,1.9,5.52,5.52,0,0,1-1.35.51,5.9,5.9,0,0,1-1.46.18,6,6,0,0,1-5.65-3.78,6.58,6.58,0,0,1-.48-2.55,6.84,6.84,0,0,1,.48-2.6,5.91,5.91,0,0,1,1.32-2,6.14,6.14,0,0,1,1.95-1.29,6.27,6.27,0,0,1,2.38-.46,5.9,5.9,0,0,1,1.46.18,5.71,5.71,0,0,1,1.36.52,6.14,6.14,0,0,1,1.21.82,6,6,0,0,1,1,1.09Zm1.57-6.3a1.29,1.29,0,0,0-.42-.1,3,3,0,0,0-.43,0,3.1,3.1,0,0,0-1.18.23,2.93,2.93,0,0,0-1,.66,3.11,3.11,0,0,0-.64,1,3.61,3.61,0,0,0-.24,1.35c0,.11,0,.24,0,.38a3.18,3.18,0,0,0,.06.43,2.59,2.59,0,0,0,.09.42,1.5,1.5,0,0,0,.15.36Z"/><path class="cls-2" d="M403.9,132.14h-3V115.38h3v5.3a3.65,3.65,0,0,1,1.14-.59,4.26,4.26,0,0,1,1.18-.17,5.19,5.19,0,0,1,2.08.42,5.27,5.27,0,0,1,1.7,1.15,5.57,5.57,0,0,1,1.14,1.71,5.27,5.27,0,0,1,.42,2.09v6.85h-3.08v-6.85h0a2.25,2.25,0,0,0-.18-.89,2.31,2.31,0,0,0-.5-.73,2.15,2.15,0,0,0-1.61-.67,2.53,2.53,0,0,0-.91.17,2.41,2.41,0,0,0-1.23,1.23,2.25,2.25,0,0,0-.18.89Z"/><path class="cls-2" d="M429,132.14h-3v-7.61a1.45,1.45,0,0,0-.12-.59,1.67,1.67,0,0,0-.33-.5,1.51,1.51,0,0,0-.49-.33,1.71,1.71,0,0,0-.59-.11,1.63,1.63,0,0,0-.59.11,1.37,1.37,0,0,0-.48.33,1.67,1.67,0,0,0-.33.5,1.45,1.45,0,0,0-.12.59v7.61h-3.05v-7.61a1.45,1.45,0,0,0-.12-.59,1.67,1.67,0,0,0-.33-.5,1.63,1.63,0,0,0-.49-.33,1.73,1.73,0,0,0-.6-.11,1.67,1.67,0,0,0-.59.11,1.58,1.58,0,0,0-.48.33,1.86,1.86,0,0,0-.32.5,1.45,1.45,0,0,0-.12.59v7.61h-3.06v-12h.74l.83.92a4.8,4.8,0,0,1,1.41-.83,4.32,4.32,0,0,1,1.59-.3,4.42,4.42,0,0,1,1.64.31,3.26,3.26,0,0,1,1.41,1.09,3.29,3.29,0,0,1,.64-.65,3.59,3.59,0,0,1,.75-.44,4,4,0,0,1,.83-.24,4.76,4.76,0,0,1,.84-.07,4.46,4.46,0,0,1,1.78.36,4.57,4.57,0,0,1,1.46,1,4.63,4.63,0,0,1,1,1.46,4.5,4.5,0,0,1,.35,1.79Z"/><path class="cls-2" d="M436,129.21a1.53,1.53,0,0,0,.36.07l.36,0a3,3,0,0,0,.86-.12,3.08,3.08,0,0,0,.78-.36,2.65,2.65,0,0,0,.65-.56,2.91,2.91,0,0,0,.46-.73l2.24,2.25a6,6,0,0,1-2.17,1.9,5.59,5.59,0,0,1-1.36.51,5.9,5.9,0,0,1-1.46.18,6.12,6.12,0,0,1-2.38-.47,6,6,0,0,1-1.95-1.31,6.25,6.25,0,0,1-1.31-2,6.58,6.58,0,0,1-.48-2.55,6.84,6.84,0,0,1,.48-2.6,6,6,0,0,1,1.31-2,6.14,6.14,0,0,1,1.95-1.29,6.31,6.31,0,0,1,2.38-.46,6.16,6.16,0,0,1,4,1.52,6.42,6.42,0,0,1,1,1.09Zm1.57-6.3a1.29,1.29,0,0,0-.42-.1,3,3,0,0,0-.43,0,3.1,3.1,0,0,0-1.18.23,2.79,2.79,0,0,0-1,.66,3,3,0,0,0-.65,1,3.61,3.61,0,0,0-.23,1.35c0,.11,0,.24,0,.38s0,.29.06.43.06.29.09.42a1.5,1.5,0,0,0,.15.36Z"/><path class="cls-2" d="M446.31,132.14h-3.06v-12H444l1,1.17a5.27,5.27,0,0,1,1.67-1,5.39,5.39,0,0,1,1.95-.36,5.19,5.19,0,0,1,2.08.42,5.33,5.33,0,0,1,2.84,2.86,5.1,5.1,0,0,1,.42,2.09v6.85h-3v-6.85a2.25,2.25,0,0,0-.18-.89,2.29,2.29,0,0,0-.49-.73,2.31,2.31,0,0,0-.73-.5,2.39,2.39,0,0,0-.89-.17,2.44,2.44,0,0,0-.9.17,2.25,2.25,0,0,0-.74.5,2.29,2.29,0,0,0-.49.73,2.25,2.25,0,0,0-.18.89Z"/><path class="cls-2" d="M471.37,130.75a9.92,9.92,0,0,1-.79.63,5.58,5.58,0,0,1-.88.51,5.42,5.42,0,0,1-.95.35,3.64,3.64,0,0,1-1,.13,5.54,5.54,0,0,1-2.08-.39,5.18,5.18,0,0,1-1.71-1.12,5.12,5.12,0,0,1-1.15-1.76,6.11,6.11,0,0,1-.42-2.32v-6.63h3v6.63a2.85,2.85,0,0,0,.19,1.08,2.35,2.35,0,0,0,.49.8,2.2,2.2,0,0,0,.74.5,2.44,2.44,0,0,0,.9.16,1.86,1.86,0,0,0,.89-.22,2.37,2.37,0,0,0,.73-.57,2.81,2.81,0,0,0,.5-.81,2.56,2.56,0,0,0,.17-.94v-6.63h3.06v12h-.74Z"/><path class="cls-2" d="M478.5,132.14h-3.06v-12h.74l1,1.17a5.27,5.27,0,0,1,1.67-1,5.41,5.41,0,0,1,2-.36,5.18,5.18,0,0,1,2.07.42,5.38,5.38,0,0,1,1.7,1.15,5.59,5.59,0,0,1,1.15,1.71,5.27,5.27,0,0,1,.42,2.09v6.85H483.1v-6.85a2.25,2.25,0,0,0-.18-.89,2.29,2.29,0,0,0-.49-.73,2.31,2.31,0,0,0-.73-.5,2.38,2.38,0,0,0-.88-.17,2.46,2.46,0,0,0-.91.17,2.25,2.25,0,0,0-.74.5,2.29,2.29,0,0,0-.49.73,2.25,2.25,0,0,0-.18.89Z"/><path class="cls-2" d="M499.92,132.14h-.74L498,130.5a10.92,10.92,0,0,1-.92.73,7.09,7.09,0,0,1-1,.6,6,6,0,0,1-1.1.39,4.48,4.48,0,0,1-1.15.15,6,6,0,0,1-2.38-.48,6.06,6.06,0,0,1-2-1.32,6.25,6.25,0,0,1-1.31-2,6.88,6.88,0,0,1,0-5,6.41,6.41,0,0,1,1.31-2,6.28,6.28,0,0,1,2-1.34,6,6,0,0,1,2.38-.48,6.2,6.2,0,0,1,.84.07,5.2,5.2,0,0,1,.84.22,3.25,3.25,0,0,1,.76.4,2.32,2.32,0,0,1,.61.6v-5.6h3.08Zm-3.08-6.1a3.15,3.15,0,0,0-.24-1.21,3.29,3.29,0,0,0-.66-1,3,3,0,0,0-1-.73,2.53,2.53,0,0,0-1.18-.28,3.1,3.1,0,0,0-1.18.23,2.74,2.74,0,0,0-1,.64,3.13,3.13,0,0,0-.65,1,3.94,3.94,0,0,0-.23,1.37,3.34,3.34,0,0,0,.88,2.3,2.9,2.9,0,0,0,1,.7,2.79,2.79,0,0,0,1.18.26A2.65,2.65,0,0,0,495,129a3.35,3.35,0,0,0,1-.73,3.41,3.41,0,0,0,.66-1A3.23,3.23,0,0,0,496.84,126Z"/><path class="cls-2" d="M512.2,132.14H509v-16h6.42a6.47,6.47,0,0,1,1.71.23,6.22,6.22,0,0,1,1.52.65,6.34,6.34,0,0,1,1.3,1,6.73,6.73,0,0,1,1,1.31,6.46,6.46,0,0,1,.65,1.53,6.46,6.46,0,0,1-.27,4.2,6.47,6.47,0,0,1-3.43,3.42,6.33,6.33,0,0,1-2.49.5H512.2Zm0-12.84v6.43h3.21a3.28,3.28,0,0,0,1.25-.25,3.36,3.36,0,0,0,1-.69,2.92,2.92,0,0,0,.69-1,3.11,3.11,0,0,0,0-2.49,2.92,2.92,0,0,0-.69-1,3.36,3.36,0,0,0-1-.69,3.28,3.28,0,0,0-1.25-.25Z"/><path class="cls-2" d="M526.44,132.14h-3.05v-12h.73l1,1.43a5.32,5.32,0,0,1,1.68-1,5.44,5.44,0,0,1,2-.37h2.7v3h-2.7a2.34,2.34,0,0,0-1.65.67,2.51,2.51,0,0,0-.49.74,2.34,2.34,0,0,0-.18.91Z"/><path class="cls-2" d="M536.49,116.89a1.94,1.94,0,0,1-.17.8,2,2,0,0,1-.44.64,2.07,2.07,0,0,1-.65.44,2.11,2.11,0,0,1-1.61,0,1.92,1.92,0,0,1-.64-.44,2,2,0,0,1-.44-.64,1.94,1.94,0,0,1-.16-.8,2,2,0,0,1,.16-.79,2.13,2.13,0,0,1,1.08-1.08,2.11,2.11,0,0,1,1.61,0,2.07,2.07,0,0,1,.65.44,1.92,1.92,0,0,1,.44.64A2,2,0,0,1,536.49,116.89ZM536,132.14h-3.08v-12H536Z"/><path class="cls-2" d="M541.69,132.14l-4.57-12h3.49l2.62,7.48,2.6-7.48h3.5l-4.57,12Z"/><path class="cls-2" d="M561.76,132.14H561l-1.19-1.64a10.92,10.92,0,0,1-.92.73,7.09,7.09,0,0,1-1,.6,6.26,6.26,0,0,1-1.1.39,4.48,4.48,0,0,1-1.15.15,6.53,6.53,0,0,1-2.38-.43,5.67,5.67,0,0,1-2-1.23,5.9,5.9,0,0,1-1.31-2,7.07,7.07,0,0,1-.48-2.68,6.72,6.72,0,0,1,.48-2.57,6.19,6.19,0,0,1,1.31-2,6,6,0,0,1,2-1.3,6.16,6.16,0,0,1,2.38-.47,4.56,4.56,0,0,1,1.16.15,6,6,0,0,1,1.1.4,6.34,6.34,0,0,1,1,.61,8.24,8.24,0,0,1,.91.75l1.19-1.43h.74Zm-3.08-6.1a3.15,3.15,0,0,0-.24-1.21,3.29,3.29,0,0,0-.66-1,3,3,0,0,0-1-.73,2.53,2.53,0,0,0-1.18-.28,3.1,3.1,0,0,0-1.18.22,2.69,2.69,0,0,0-1,.62,3.07,3.07,0,0,0-.65,1,4,4,0,0,0-.23,1.39,4.07,4.07,0,0,0,.23,1.4,3.13,3.13,0,0,0,.65,1,2.59,2.59,0,0,0,1,.63,3.29,3.29,0,0,0,1.18.21,2.65,2.65,0,0,0,1.18-.27,3.35,3.35,0,0,0,1-.73,3.41,3.41,0,0,0,.66-1A3.23,3.23,0,0,0,558.68,126Z"/><path class="cls-2" d="M570.1,132.14a5.19,5.19,0,0,1-2.08-.42,5.36,5.36,0,0,1-2.86-2.86,5.19,5.19,0,0,1-.42-2.08v-3.56h-1.49v-3h1.49v-4.79h3v4.79h4.64v3h-4.64v3.56a2.26,2.26,0,0,0,.18.9,2.33,2.33,0,0,0,.49.74,2.51,2.51,0,0,0,.74.49,2.18,2.18,0,0,0,.91.19h2.32v3Z"/><path class="cls-2" d="M577.21,136.71h-3.08V120.15h.74l1.22,1.45a8.37,8.37,0,0,1,.91-.74,7,7,0,0,1,1-.6,6,6,0,0,1,1.1-.4,4.55,4.55,0,0,1,1.16-.14,6.34,6.34,0,0,1,2.38.45,5.81,5.81,0,0,1,1.94,1.28,5.91,5.91,0,0,1,1.32,2,6.75,6.75,0,0,1,.48,2.59,7,7,0,0,1-.48,2.66,5.74,5.74,0,0,1-3.26,3.27,6.53,6.53,0,0,1-2.38.43,3.57,3.57,0,0,1-.8-.09,5.53,5.53,0,0,1-.79-.24,7.35,7.35,0,0,1-.76-.34l-.72-.39ZM583.33,126a3.72,3.72,0,0,0-.24-1.37,3.13,3.13,0,0,0-.65-1,2.82,2.82,0,0,0-1-.64,3.17,3.17,0,0,0-2.37,0,2.84,2.84,0,0,0-1,.64,3,3,0,0,0-.66,1,3.72,3.72,0,0,0-.24,1.37,3.54,3.54,0,0,0,.24,1.33,3.08,3.08,0,0,0,.66,1,3,3,0,0,0,1,.66,3.17,3.17,0,0,0,2.37,0,3,3,0,0,0,1-.66,3.22,3.22,0,0,0,.65-1A3.54,3.54,0,0,0,583.33,126Z"/><path class="cls-2" d="M592.86,129.21a1.53,1.53,0,0,0,.36.07l.36,0a3,3,0,0,0,.86-.12,3.08,3.08,0,0,0,.78-.36,2.65,2.65,0,0,0,.65-.56,2.91,2.91,0,0,0,.46-.73l2.24,2.25a6,6,0,0,1-2.18,1.9,5.37,5.37,0,0,1-1.35.51,5.9,5.9,0,0,1-1.46.18,6.12,6.12,0,0,1-2.38-.47,6,6,0,0,1-2-1.31,6.25,6.25,0,0,1-1.31-2,6.41,6.41,0,0,1-.49-2.55,6.65,6.65,0,0,1,.49-2.6,6,6,0,0,1,1.31-2,6.14,6.14,0,0,1,2-1.29,6.31,6.31,0,0,1,2.38-.46,6,6,0,0,1,2.83.7,6.38,6.38,0,0,1,1.2.82,6,6,0,0,1,1,1.09Zm1.57-6.3a1.29,1.29,0,0,0-.42-.1,3,3,0,0,0-.43,0,3.1,3.1,0,0,0-1.18.23,2.93,2.93,0,0,0-1,.66,3.11,3.11,0,0,0-.64,1,3.61,3.61,0,0,0-.23,1.35c0,.11,0,.24,0,.38a3.18,3.18,0,0,0,.06.43c0,.15.06.29.09.42a1.5,1.5,0,0,0,.15.36Z"/><path class="cls-2" d="M603.19,132.14h-3.06v-12h.74l1,1.43a5.43,5.43,0,0,1,3.63-1.41h2.7v3h-2.7a2.26,2.26,0,0,0-.9.18,2.22,2.22,0,0,0-.74.49,2.36,2.36,0,0,0-.5.74,2.53,2.53,0,0,0-.17.91Z"/><path class="cls-2" d="M616.07,132.14h-7v-3h7a.74.74,0,0,0,.54-.23.69.69,0,0,0,.22-.53.42.42,0,0,0-.22-.43,1.27,1.27,0,0,0-.54-.1h-3.18a3.74,3.74,0,0,1-1.49-.3,3.8,3.8,0,0,1-2.31-3.53,3.92,3.92,0,0,1,.29-1.49,3.84,3.84,0,0,1,2-2,3.74,3.74,0,0,1,1.49-.3h6.19v3h-6.19a.69.69,0,0,0-.53.22.74.74,0,0,0-.23.54.79.79,0,0,0,.23.56.69.69,0,0,0,.53.22h3.18a4,4,0,0,1,1.48.27,3.69,3.69,0,0,1,1.21.73,3.57,3.57,0,0,1,.82,1.13,3.48,3.48,0,0,1,.3,1.45,3.66,3.66,0,0,1-.3,1.48,4,4,0,0,1-.82,1.21,3.75,3.75,0,0,1-1.21.82A3.65,3.65,0,0,1,616.07,132.14Z"/><path class="cls-2" d="M633.09,126a6.44,6.44,0,0,1-.48,2.5,6.19,6.19,0,0,1-1.31,2,6.1,6.1,0,0,1-1.94,1.33,6,6,0,0,1-4.77,0,6.13,6.13,0,0,1-3.27-3.34,6.44,6.44,0,0,1-.48-2.5,6.59,6.59,0,0,1,.48-2.53,6.13,6.13,0,0,1,3.27-3.34,5.92,5.92,0,0,1,2.38-.48,6.13,6.13,0,0,1,2.39.46,5.81,5.81,0,0,1,1.94,1.28,6.19,6.19,0,0,1,1.31,2A6.8,6.8,0,0,1,633.09,126ZM630,126a3.59,3.59,0,0,0-.24-1.34,3.29,3.29,0,0,0-.65-1,3,3,0,0,0-4.3,0,3.26,3.26,0,0,0-.64,1,3.59,3.59,0,0,0-.24,1.34,3.44,3.44,0,0,0,.24,1.29,3.26,3.26,0,0,0,.64,1,3.18,3.18,0,0,0,1,.69,2.78,2.78,0,0,0,1.18.25,3,3,0,0,0,2.15-.89,3.22,3.22,0,0,0,.65-1A3.54,3.54,0,0,0,630,126Z"/><path class="cls-2" d="M637.84,132.14h-3.06v-12h.74l1,1.17a5.27,5.27,0,0,1,1.67-1,5.45,5.45,0,0,1,2-.36,5.18,5.18,0,0,1,2.07.42,5.27,5.27,0,0,1,1.7,1.15,5.42,5.42,0,0,1,1.15,1.71,5.27,5.27,0,0,1,.42,2.09v6.85h-3.06v-6.85a2.25,2.25,0,0,0-.18-.89,2.29,2.29,0,0,0-.49-.73,2.31,2.31,0,0,0-.73-.5,2.34,2.34,0,0,0-.88-.17,2.49,2.49,0,0,0-.91.17,2.36,2.36,0,0,0-.74.5,2.29,2.29,0,0,0-.49.73,2.25,2.25,0,0,0-.18.89Z"/><path class="cls-2" d="M652.44,129.21a1.53,1.53,0,0,0,.36.07l.36,0a3.08,3.08,0,0,0,.86-.12,3.43,3.43,0,0,0,.78-.36,2.65,2.65,0,0,0,.65-.56,2.91,2.91,0,0,0,.46-.73l2.24,2.25a6,6,0,0,1-2.18,1.9,5.52,5.52,0,0,1-1.35.51,6,6,0,0,1-1.46.18,6.09,6.09,0,0,1-2.38-.47,5.83,5.83,0,0,1-1.95-1.31,6.12,6.12,0,0,1-1.32-2A6.58,6.58,0,0,1,647,126a6.84,6.84,0,0,1,.48-2.6,5.91,5.91,0,0,1,3.27-3.29,6.27,6.27,0,0,1,2.38-.46,6,6,0,0,1,2.82.7,6.45,6.45,0,0,1,1.21.82,6,6,0,0,1,1,1.09Zm1.57-6.3a1.29,1.29,0,0,0-.42-.1,3,3,0,0,0-.43,0A3.06,3.06,0,0,0,652,123a2.93,2.93,0,0,0-1,.66,3.11,3.11,0,0,0-.64,1,3.61,3.61,0,0,0-.24,1.35c0,.11,0,.24,0,.38a3.18,3.18,0,0,0,.06.43,2.59,2.59,0,0,0,.09.42,1.5,1.5,0,0,0,.15.36Z"/><path class="cls-2" d="M662.76,132.14h-3v-12h.74l1,1.17a5.36,5.36,0,0,1,3.63-1.4,5.18,5.18,0,0,1,2.07.42,5.42,5.42,0,0,1,1.71,1.15A5.57,5.57,0,0,1,670,123.2a5.27,5.27,0,0,1,.42,2.09v6.85h-3v-6.85a2.25,2.25,0,0,0-.18-.89,2.31,2.31,0,0,0-.5-.73,2.27,2.27,0,0,0-.72-.5,2.39,2.39,0,0,0-.89-.17,2.53,2.53,0,0,0-.91.17,2.21,2.21,0,0,0-.73.5,2.31,2.31,0,0,0-.5.73,2.25,2.25,0,0,0-.18.89Z"/></g></g></svg>